HIERARCHY
ROOT hip
{
	OFFSET 0.000000 0.000000 0.000000 
	CHANNELS 6 Xposition Yposition Zposition Zrotation Xrotation Yrotation
	JOINT abdomen
	{
		OFFSET 0.000000 3.402643 0.000000 
		CHANNELS 3 Zrotation Xrotation Yrotation
		JOINT chest
		{
			OFFSET 0.000000 8.438565 -0.680529 
			CHANNELS 3 Zrotation Xrotation Yrotation
			JOINT neck
			{
				OFFSET 0.000000 10.207942 -0.272212 
				CHANNELS 3 Zrotation Xrotation Yrotation
				JOINT head
				{
					OFFSET 0.000000 3.130431 0.000000 
					CHANNELS 3 Zrotation Xrotation Yrotation
					End Site
					{
						OFFSET 0.000000 3.130435 0.000000 
					}
				}
			}
			JOINT lCollar
			{
				OFFSET 3.470700 6.669187 -0.816635 
				CHANNELS 3 Zrotation Xrotation Yrotation
				JOINT lShldr
				{
					OFFSET 3.198488 0.000000 0.000000 
					CHANNELS 3 Zrotation Xrotation Yrotation
					JOINT lForeArm
					{
						OFFSET 10.139888 0.000000 0.000000 
						CHANNELS 3 Zrotation Xrotation Yrotation
						JOINT lHand
						{
							OFFSET 8.370511 0.000000 0.000000 
							CHANNELS 3 Zrotation Xrotation Yrotation
							End Site
							{
								OFFSET 4.083176 0.000000 0.000000 
							}
						}
					}
				}
			}
			JOINT rCollar
			{
				OFFSET -3.470700 6.669187 -0.816635 
				CHANNELS 3 Zrotation Xrotation Yrotation
				JOINT rShldr
				{
					OFFSET -3.198488 0.000000 0.000000 
					CHANNELS 3 Zrotation Xrotation Yrotation
					JOINT rForeArm
					{
						OFFSET -10.139888 0.000000 0.000000 
						CHANNELS 3 Zrotation Xrotation Yrotation
						JOINT rHand
						{
							OFFSET -8.370511 0.000000 0.000000 
							CHANNELS 3 Zrotation Xrotation Yrotation
							End Site
							{
								OFFSET -4.083176 0.000000 0.000000 
							}
						}
					}
				}
			}
		}
	}
	JOINT lThigh
	{
		OFFSET 5.308129 -1.633274 1.361059 
		CHANNELS 3 Zrotation Xrotation Yrotation
		JOINT lShin
		{
			OFFSET -2.041588 -20.007561 0.000000 
			CHANNELS 3 Zrotation Xrotation Yrotation
			JOINT lFoot
			{
				OFFSET 0.000000 -19.190928 -1.224953 
				CHANNELS 3 Zrotation Xrotation Yrotation
				End Site
				{
					OFFSET 0.000000 -2.449906 4.627600 
				}
			}
		}
	}
	JOINT rThigh
	{
		OFFSET -5.308129 -1.633274 1.361059 
		CHANNELS 3 Zrotation Xrotation Yrotation
		JOINT rShin
		{
			OFFSET 2.041588 -20.007561 0.000000 
			CHANNELS 3 Zrotation Xrotation Yrotation
			JOINT rFoot
			{
				OFFSET 0.000000 -19.190928 -1.224953 
				CHANNELS 3 Zrotation Xrotation Yrotation
				End Site
				{
					OFFSET 0.000000 -2.449906 4.627600 
				}
			}
		}
	}
}
MOTION
Frames: 6
Frame Time: 0.016667
9.783320 45.135483 -5.322050 2.978520 -1.250000 -22.112099 2.201010 17.681200 0.788921 3.128750 -19.313801 3.321410 -8.767660 21.307301 14.852600 5.387190 15.326000 4.629320 -1.998780 -0.069785 1.998780 -82.178398 -11.713900 -25.723700 -1.670500 -0.159838 -120.986000 -0.079796 38.055000 0.051535 1.998780 -0.069785 -1.998780 74.484703 -0.108908 14.253000 -1.508670 -3.450050 130.218994 0.100514 20.375000 -0.068107 2.305340 -28.951900 3.373400 3.102630 37.113201 0.854561 2.123690 3.770870 -9.854770 0.032975 -4.678600 -1.114780 -3.543040 50.970100 -0.581847 2.897490 -17.620800 6.693970 
10.064000 44.814690 -5.676650 2.724610 -0.917968 -23.049500 1.961620 17.371500 0.980246 3.372350 -19.347900 3.570530 -8.800200 20.917000 14.834300 5.356800 15.199200 4.650340 -1.998780 -0.069785 1.998780 -82.663696 -11.637900 -25.776199 -1.662560 -0.142848 -121.523003 -0.079344 38.338001 0.050746 1.998780 -0.069785 -1.998780 73.991898 -0.305462 14.840200 -1.510650 -3.448170 130.141006 0.100843 19.945999 -0.069099 3.668200 -30.530199 3.406510 3.142340 38.996899 0.848855 2.048070 2.137030 -11.598000 0.222932 -4.485980 -1.013260 -3.573500 49.523602 -0.532988 3.866970 -20.854401 8.112950 
10.344700 44.493889 -6.031250 2.480470 -0.585938 -23.996799 1.723200 17.061600 1.171270 3.616040 -19.391399 3.820000 -8.832740 20.517000 14.815600 5.316500 15.072500 4.672970 -1.998780 -0.069785 1.998780 -83.142403 -11.554000 -25.817699 -1.654280 -0.125617 -122.069000 -0.078886 38.620998 0.049953 1.998780 -0.069785 -1.998780 73.502098 -0.500967 15.416600 -1.512620 -3.446280 130.063004 0.097361 19.516001 -0.059730 5.039810 -32.093498 3.462860 3.174910 40.870899 0.843739 1.937570 0.499975 -13.329200 0.390258 -4.208600 -0.899074 -3.578760 48.030300 -0.527934 4.945180 -24.098101 9.618940 
10.672100 44.249786 -6.321270 2.207030 -0.507812 -25.305399 1.737700 16.534100 1.175570 3.888250 -19.409800 3.872540 -9.160020 20.424601 15.170300 5.237270 15.111900 4.815420 -1.998780 -0.069785 1.998780 -83.847397 -11.819200 -25.132999 -1.640830 -0.098417 -122.938004 -0.077947 39.188000 0.048345 1.998780 -0.069785 -1.998780 73.259903 0.092765 15.737000 -1.531990 -3.427500 129.289993 0.097307 19.573999 -0.059593 6.267170 -32.870701 3.132370 3.263420 42.357101 0.784111 1.460060 -2.107360 -14.161000 0.205156 -4.660230 -1.623930 -3.540520 47.816700 -0.553966 5.481380 -26.158300 10.143600 
10.999600 44.005688 -6.611300 1.943350 -0.429688 -26.613998 1.752100 16.006599 1.189620 4.170220 -19.428200 3.924500 -9.487950 20.323000 15.515500 5.167960 15.151200 4.957140 -1.998780 -0.069785 1.998780 -84.540001 -12.091200 -24.448200 -1.626940 -0.071419 -123.806000 -0.076963 39.764000 0.046684 1.998780 -0.069785 -1.998780 73.020897 0.684595 16.059200 -1.551340 -3.408230 128.507996 0.097253 19.632999 -0.059455 7.490500 -33.665501 2.793280 3.307050 43.856701 0.757761 0.940364 -4.710340 -15.004500 -0.007634 -5.051330 -2.338940 -3.524080 47.651100 -0.574898 6.078960 -28.297800 10.710400 
11.279000 43.877487 -6.825710 2.177740 -0.380860 -28.078899 2.186730 15.942900 0.978012 4.284010 -19.255600 3.775680 -9.786600 19.824100 15.776800 5.028530 15.044300 5.123650 -1.998780 -0.069785 1.998780 -85.246498 -12.687200 -23.573700 -1.612480 -0.044337 -124.684998 -0.076758 39.881001 0.046343 1.998780 -0.069785 -1.998780 73.368500 1.559820 15.602900 -1.579640 -3.379080 127.345001 0.097478 19.389000 -0.060030 8.176840 -33.785702 2.576710 3.350420 44.658798 0.725873 0.879477 -6.699340 -11.917300 -0.650482 -6.060970 -2.269930 -3.488090 48.253300 -0.619763 6.412630 -29.351700 11.070700 
